{
.appVersion = "3091";
DisplayStrings = (
"HBHCHDHEHFHGHHHIHLHNHOHPHQHTHUHVH\012OBOCODOEOFOGOHOIOLONOOOPOQOTOUOVO\012\012HHHHBHHHOOOBOOOO\012HHHHCHHHOOOCOOOO\012HHHHDHHHOOODOOOO\012HHHHEHHHOOOEOOOO\012HHHHFHHHOOOFOOOO\012HHHHGHHHOOOGOOOO\012HHHHHHHHOOOHOOOO\012HHHHIHHHOOOIOOOO\012HHHHLHHHOOOLOOOO\012HHHHNHHHOOONOOOO\012HHHHOHHHOOOOOOOO\012HHHHPHHHOOOPOOOO\012HHHHQHHHOOOQOOOO\012HHHHTHHHOOOTOOOO\012HHHHUHHHOOOUOOOO\012HHHHVHHHOOOVOOOO",
"nanbncndnenfngnhninlnmnnnononpnqnrnvnwnoaobocodoeofogohoiolomonooooopoqorovowo\012nnnnannnoooaoooo\012nnnnbnnnoooboooo\012nnnncnnnooocoooo\012nnnndnnnooodoooo\012nnnnennnoooeoooo\012nnnnfnnnooofoooo\012nnnngnnnooogoooo\012nnnnhnnnooohoooo\012nnnninnnoooioooo\012nnnnlnnnoooloooo\012nnnnmnnnooomoooo\012nnnnnnnnooonoooo\012nnnnonnnoooooooo\012nnnnonnnoooooooo\012nnnnpnnnooopoooo\012nnnnqnnnoooqoooo\012nnnnrnnnoooroooo\012nnnnvnnnooovoooo\012nnnnwnnnooowoooo\012",
"Ó",
"The/space quic/space brown/space fow/space iomp/space over/space de/space laci/space dog",
H,
"/_diagonal",
"/_straightbar",
"/a.alt",
il
);
date = "2021-08-16 17:07:48 +0000";
familyName = Parquetipo;
fontMaster = (
{
alignmentZones = (
"{750, 10}",
"{700, 10}",
"{500, 10}",
"{0, -10}",
"{-250, -10}"
);
ascender = 750;
capHeight = 700;
descender = -250;
id = "E8C3E522-08D8-4F53-83D1-52B480F39AFA";
visible = 1;
xHeight = 500;
}
);
glyphs = (
{
glyphname = B;
lastChange = "2021-08-31 17:45:15 +0000";
layers = (
{
layerId = "E8C3E522-08D8-4F53-83D1-52B480F39AFA";
paths = (
{
closed = 1;
nodes = (
"401 0 LINE SMOOTH",
"531 0 OFFCURVE",
"605 56 OFFCURVE",
"605 198 CURVE SMOOTH",
"605 324 OFFCURVE",
"563 363 OFFCURVE",
"500 369 CURVE",
"564 376 OFFCURVE",
"590 433 OFFCURVE",
"590 515 CURVE SMOOTH",
"590 638 OFFCURVE",
"524 700 OFFCURVE",
"389 700 CURVE SMOOTH",
"70 700 LINE",
"70 0 LINE"
);
},
{
closed = 1;
nodes = (
"220 290 LINE",
"408 291 LINE",
"455 255 LINE",
"455 179 LINE",
"408 136 LINE",
"220 136 LINE"
);
},
{
closed = 1;
nodes = (
"220 575 LINE",
"394 575 LINE",
"441 538 LINE",
"441 455 LINE",
"395 416 LINE",
"220 416 LINE"
);
}
);
width = 655;
}
);
leftMetricsKey = H;
unicode = 0042;
},
{
glyphname = C;
lastChange = "2021-08-31 17:45:15 +0000";
layers = (
{
layerId = "E8C3E522-08D8-4F53-83D1-52B480F39AFA";
paths = (
{
closed = 1;
nodes = (
"438 -10 LINE SMOOTH",
"609 -10 OFFCURVE",
"683 102 OFFCURVE",
"683 221 CURVE",
"548 221 LINE",
"458 129 LINE",
"320 129 LINE",
"209 217 LINE",
"209 483 LINE",
"320 571 LINE",
"458 571 LINE",
"548 479 LINE",
"683 479 LINE",
"683 598 OFFCURVE",
"609 710 OFFCURVE",
"438 710 CURVE SMOOTH",
"340 710 LINE SMOOTH",
"144 710 OFFCURVE",
"60 576 OFFCURVE",
"60 403 CURVE SMOOTH",
"60 297 LINE SMOOTH",
"60 124 OFFCURVE",
"144 -10 OFFCURVE",
"340 -10 CURVE SMOOTH"
);
}
);
width = 728;
},
{
associatedMasterId = "E8C3E522-08D8-4F53-83D1-52B480F39AFA";
layerId = "EFE8FA62-A3BD-4D8E-8DF5-E738213A007D";
name = "Aug 27 21, 10:57";
paths = (
{
closed = 1;
nodes = (
"54 300 LINE SMOOTH",
"54 127 OFFCURVE",
"138 -7 OFFCURVE",
"334 -7 CURVE SMOOTH",
"452 -7 LINE SMOOTH",
"534 -7 OFFCURVE",
"608 47 OFFCURVE",
"651 107 CURVE",
"541 189 LINE",
"472 132 LINE",
"314 132 LINE",
"203 220 LINE",
"203 473 LINE",
"314 561 LINE",
"472 561 LINE",
"541 504 LINE",
"651 586 LINE",
"608 646 OFFCURVE",
"534 700 OFFCURVE",
"452 700 CURVE SMOOTH",
"334 700 LINE SMOOTH",
"138 700 OFFCURVE",
"54 566 OFFCURVE",
"54 393 CURVE SMOOTH"
);
}
);
width = 681;
},
{
associatedMasterId = "E8C3E522-08D8-4F53-83D1-52B480F39AFA";
layerId = "E076ADFC-DB88-44D1-9565-E46565D5E029";
name = "Aug 27 21, 12:59";
paths = (
{
closed = 1;
nodes = (
"587 -10 LINE",
"587 100 LINE",
"507 129 LINE",
"314 129 LINE",
"203 217 LINE",
"203 473 LINE",
"314 561 LINE",
"507 561 LINE",
"587 590 LINE",
"587 700 LINE",
"334 700 LINE SMOOTH",
"138 700 OFFCURVE",
"54 566 OFFCURVE",
"54 393 CURVE SMOOTH",
"54 297 LINE SMOOTH",
"54 124 OFFCURVE",
"138 -10 OFFCURVE",
"334 -10 CURVE SMOOTH"
);
}
);
width = 607;
}
);
leftMetricsKey = O;
unicode = 0043;
},
{
glyphname = D;
lastChange = "2021-08-31 17:45:15 +0000";
layers = (
{
layerId = "E8C3E522-08D8-4F53-83D1-52B480F39AFA";
paths = (
{
closed = 1;
nodes = (
"382 0 LINE SMOOTH",
"600 0 OFFCURVE",
"662 134 OFFCURVE",
"662 307 CURVE SMOOTH",
"662 393 LINE SMOOTH",
"662 566 OFFCURVE",
"600 700 OFFCURVE",
"382 700 CURVE SMOOTH",
"70 700 LINE",
"70 0 LINE"
);
},
{
closed = 1;
nodes = (
"219 561 LINE",
"402 561 LINE",
"512 473 LINE",
"512 227 LINE",
"402 139 LINE",
"219 139 LINE"
);
}
);
width = 722;
}
);
leftMetricsKey = H;
rightMetricsKey = O;
unicode = 0044;
},
{
glyphname = E;
lastChange = "2021-08-31 17:45:15 +0000";
layers = (
{
layerId = "E8C3E522-08D8-4F53-83D1-52B480F39AFA";
paths = (
{
closed = 1;
nodes = (
"602 0 LINE",
"602 107 LINE",
"524 139 LINE",
"219 139 LINE",
"219 285 LINE",
"537 285 LINE",
"537 424 LINE",
"219 424 LINE",
"219 561 LINE",
"504 561 LINE",
"582 593 LINE",
"582 700 LINE",
"70 700 LINE",
"70 0 LINE"
);
}
);
width = 630;
},
{
associatedMasterId = "E8C3E522-08D8-4F53-83D1-52B480F39AFA";
components = (
{
alignment = -1;
name = _bar;
transform = "{1, 0, 0, 1.3941, 178, -558}";
},
{
alignment = -1;
name = _bar;
transform = "{1, 0, 0, -1.3941, 168, 1308}";
},
{
name = _straightstem;
transform = "{1, 0, 0, 0.93797, 36, 0}";
},
{
name = _straightbar;
transform = "{1, 0, 0, 1.3941, 153, -244}";
}
);
layerId = "863AD489-730F-4FE0-A0FB-E8D7961DB703";
name = "Aug 17 21, 19:47";
width = 627;
}
);
leftMetricsKey = H;
unicode = 0045;
},
{
glyphname = F;
lastChange = "2021-08-31 17:45:15 +0000";
layers = (
{
layerId = "E8C3E522-08D8-4F53-83D1-52B480F39AFA";
paths = (
{
closed = 1;
nodes = (
"219 0 LINE",
"219 251 LINE",
"522 251 LINE",
"522 387 LINE",
"219 387 LINE",
"219 560 LINE",
"510 560 LINE",
"589 592 LINE",
"589 700 LINE",
"70 700 LINE",
"70 0 LINE"
);
}
);
width = 617;
}
);
leftMetricsKey = H;
rightMetricsKey = E;
unicode = 0046;
},
{
glyphname = G;
lastChange = "2021-08-31 17:45:15 +0000";
layers = (
{
layerId = "E8C3E522-08D8-4F53-83D1-52B480F39AFA";
paths = (
{
closed = 1;
nodes = (
"632 0 LINE",
"632 419 LINE",
"307 420 LINE",
"307 321 LINE",
"379 291 LINE",
"492 291 LINE",
"491 139 LINE",
"320 139 LINE",
"209 227 LINE",
"209 473 LINE",
"320 561 LINE",
"553 561 LINE",
"633 590 LINE",
"633 700 LINE",
"340 700 LINE SMOOTH",
"144 700 OFFCURVE",
"60 566 OFFCURVE",
"60 393 CURVE SMOOTH",
"60 310 LINE SMOOTH",
"60 134 OFFCURVE",
"144 0 OFFCURVE",
"340 0 CURVE SMOOTH"
);
}
);
width = 703;
},
{
associatedMasterId = "E8C3E522-08D8-4F53-83D1-52B480F39AFA";
layerId = "577B92CF-87ED-434E-A9C3-6BB714CE75B0";
name = "Aug 27 21, 11:21";
paths = (
{
closed = 1;
nodes = (
"40 300 LINE",
"40 127 OFFCURVE",
"124 -7 OFFCURVE",
"320 -7 CURVE",
"438 -7 LINE",
"515 -7 OFFCURVE",
"599 47 OFFCURVE",
"642 107 CURVE",
"522 189 LINE",
"458 132 LINE",
"300 132 LINE",
"189 220 LINE",
"189 473 LINE",
"300 561 LINE",
"458 561 LINE",
"527 504 LINE",
"637 586 LINE",
"594 646 OFFCURVE",
"520 700 OFFCURVE",
"438 700 CURVE",
"320 700 LINE",
"124 700 OFFCURVE",
"40 566 OFFCURVE",
"40 393 CURVE"
);
},
{
closed = 1;
nodes = (
"642 107 LINE",
"642 362 LINE",
"521 361 LINE",
"521 107 LINE"
);
},
{
closed = 1;
nodes = (
"567 266 LINE",
"642 298 LINE",
"642 405 LINE",
"263 405 LINE",
"263 296 LINE",
"335 266 LINE"
);
}
);
width = 672;
},
{
associatedMasterId = "E8C3E522-08D8-4F53-83D1-52B480F39AFA";
layerId = "8FB46BD1-98B7-494F-9F3F-CE9F6EC9ADB9";
name = "Aug 27 21, 12:13";
paths = (
{
closed = 1;
nodes = (
"521 -10 LINE",
"642 -10 LINE",
"642 420 LINE",
"313 420 LINE",
"313 311 LINE",
"385 281 LINE",
"537 281 LINE",
"521 304 LINE"
);
},
{
closed = 1;
nodes = (
"613 -10 LINE",
"613 100 LINE",
"533 129 LINE",
"300 129 LINE",
"189 217 LINE",
"189 473 LINE",
"300 561 LINE",
"533 561 LINE",
"613 590 LINE",
"613 700 LINE",
"320 700 LINE SMOOTH",
"124 700 OFFCURVE",
"40 566 OFFCURVE",
"40 393 CURVE SMOOTH",
"40 300 LINE SMOOTH",
"40 124 OFFCURVE",
"124 -10 OFFCURVE",
"320 -10 CURVE SMOOTH"
);
}
);
width = 672;
}
);
leftMetricsKey = O;
rightMetricsKey = H;
unicode = 0047;
},
{
glyphname = H;
lastChange = "2021-08-31 17:45:15 +0000";
layers = (
{
layerId = "E8C3E522-08D8-4F53-83D1-52B480F39AFA";
paths = (
{
closed = 1;
nodes = (
"673 0 LINE",
"673 622 LINE",
"645 700 LINE",
"524 700 LINE",
"524 403 LINE",
"219 403 LINE",
"219 622 LINE",
"191 700 LINE",
"70 700 LINE",
"70 0 LINE",
"219 0 LINE",
"219 264 LINE",
"524 264 LINE",
"524 0 LINE"
);
}
);
width = 743;
},
{
associatedMasterId = "E8C3E522-08D8-4F53-83D1-52B480F39AFA";
components = (
{
alignment = -1;
name = _stem;
transform = "{1, 0, 0, 0.93831, 56, 0}";
},
{
alignment = -1;
name = _bar;
transform = "{1.16358, 0, 0, 1.3941, 119, -290}";
},
{
alignment = -1;
name = _stem;
transform = "{1, 0, 0, 0.93831, 510, 0}";
}
);
layerId = "AD012F49-4452-4C6E-86DA-E3D3B727F4A1";
name = "Aug 17 21, 19:48";
width = 724;
}
);
unicode = 0048;
},
{
glyphname = I;
lastChange = "2021-08-31 17:45:15 +0000";
layers = (
{
layerId = "E8C3E522-08D8-4F53-83D1-52B480F39AFA";
paths = (
{
closed = 1;
nodes = (
"219 0 LINE",
"219 622 LINE",
"191 700 LINE",
"70 700 LINE",
"70 0 LINE"
);
}
);
width = 289;
},
{
associatedMasterId = "E8C3E522-08D8-4F53-83D1-52B480F39AFA";
components = (
{
alignment = -1;
name = _stem;
transform = "{1, 0, 0, 0.93831, 225, 0}";
},
{
alignment = -1;
name = _bar;
transform = "{1.2169, 0, 0, -1.3941, 25, 1309}";
},
{
alignment = -1;
name = _bar;
transform = "{1.2169, 0, 0, 1.3941, 25, -558}";
},
{
alignment = -1;
name = _bar;
transform = "{1.2169, 0, 0, -1.3941, 65, 1309}";
},
{
alignment = -1;
name = _bar;
transform = "{1.2169, 0, 0, 1.3941, 65, -558}";
}
);
layerId = "D59DE561-8433-40A0-99DA-C763E57596A9";
name = "Aug 17 21, 19:51";
width = 601;
}
);
leftMetricsKey = H;
rightMetricsKey = H;
unicode = 0049;
},
{
glyphname = L;
lastChange = "2021-08-31 17:45:15 +0000";
layers = (
{
layerId = "E8C3E522-08D8-4F53-83D1-52B480F39AFA";
paths = (
{
closed = 1;
nodes = (
"553 0 LINE",
"553 107 LINE",
"475 139 LINE",
"219 139 LINE",
"219 622 LINE",
"191 700 LINE",
"70 700 LINE",
"70 0 LINE"
);
}
);
width = 578;
},
{
associatedMasterId = "E8C3E522-08D8-4F53-83D1-52B480F39AFA";
layerId = "ADB02C90-7EE1-44EF-875E-00A32C5B15D5";
name = "Aug 27 21, 12:22";
paths = (
{
closed = 1;
nodes = (
"214 0 LINE",
"214 623 LINE",
"186 701 LINE",
"65 701 LINE",
"65 0 LINE"
);
},
{
closed = 1;
nodes = (
"548 0 LINE",
"548 107 LINE",
"470 139 LINE",
"168 139 LINE",
"168 0 LINE"
);
},
{
closed = 1;
nodes = (
"65 700 LINE",
"65 0 LINE",
"214 0 LINE",
"214 638 LINE",
"176 700 LINE"
);
},
{
closed = 1;
nodes = (
"65 701 LINE",
"65 561 LINE",
"536 561 LINE",
"584 583 LINE",
"584 701 LINE"
);
},
{
closed = 1;
nodes = (
"65 387 LINE",
"65 251 LINE",
"517 251 LINE",
"517 387 LINE"
);
}
);
visible = 1;
width = 600;
}
);
leftMetricsKey = H;
unicode = 004C;
},
{
glyphname = N;
lastChange = "2021-08-31 17:45:15 +0000";
layers = (
{
layerId = "E8C3E522-08D8-4F53-83D1-52B480F39AFA";
paths = (
{
closed = 1;
nodes = (
"219 0 LINE",
"219 401 LINE",
"212 473 LINE",
"534 0 LINE",
"692 0 LINE",
"692 638 LINE",
"649 700 LINE",
"543 700 LINE",
"543 294 LINE",
"550 215 LINE",
"227 700 LINE",
"70 700 LINE",
"70 0 LINE"
);
}
);
width = 762;
}
);
leftMetricsKey = H;
rightMetricsKey = H;
unicode = 004E;
},
{
glyphname = Ntilde;
lastChange = "2021-08-31 17:45:15 +0000";
layers = (
{
layerId = "E8C3E522-08D8-4F53-83D1-52B480F39AFA";
paths = (
{
closed = 1;
nodes = (
"219 0 LINE",
"219 401 LINE",
"212 473 LINE",
"534 0 LINE",
"692 0 LINE",
"692 638 LINE",
"649 700 LINE",
"543 700 LINE",
"543 294 LINE",
"550 215 LINE",
"227 700 LINE",
"70 700 LINE",
"70 0 LINE"
);
},
{
closed = 1;
nodes = (
"294 740 LINE",
"323 783 LINE",
"344 768 OFFCURVE",
"386 744 OFFCURVE",
"459 744 CURVE SMOOTH",
"517 744 OFFCURVE",
"565 773 OFFCURVE",
"562 873 CURVE",
"465 873 LINE",
"459 826 LINE",
"432 847 OFFCURVE",
"387 872 OFFCURVE",
"333 872 CURVE SMOOTH",
"268 872 OFFCURVE",
"205 834 OFFCURVE",
"211 740 CURVE"
);
}
);
width = 762;
}
);
leftMetricsKey = H;
rightMetricsKey = H;
unicode = 00D1;
},
{
glyphname = O;
lastChange = "2021-08-31 17:45:15 +0000";
layers = (
{
layerId = "E8C3E522-08D8-4F53-83D1-52B480F39AFA";
paths = (
{
closed = 1;
nodes = (
"418 -10 LINE SMOOTH",
"636 -10 OFFCURVE",
"698 124 OFFCURVE",
"698 297 CURVE SMOOTH",
"698 403 LINE SMOOTH",
"698 576 OFFCURVE",
"636 710 OFFCURVE",
"418 710 CURVE SMOOTH",
"340 710 LINE SMOOTH",
"144 710 OFFCURVE",
"60 576 OFFCURVE",
"60 403 CURVE SMOOTH",
"60 297 LINE SMOOTH",
"60 124 OFFCURVE",
"144 -10 OFFCURVE",
"340 -10 CURVE SMOOTH"
);
},
{
closed = 1;
nodes = (
"209 483 LINE",
"320 571 LINE",
"438 571 LINE",
"548 483 LINE",
"548 217 LINE",
"438 129 LINE",
"320 129 LINE",
"209 217 LINE"
);
}
);
width = 758;
}
);
unicode = 004F;
},
{
glyphname = Oacute;
lastChange = "2021-08-31 17:45:15 +0000";
layers = (
{
layerId = "E8C3E522-08D8-4F53-83D1-52B480F39AFA";
paths = (
{
closed = 1;
nodes = (
"385 742 LINE",
"469 742 OFFCURVE",
"552 800 OFFCURVE",
"552 854 CURVE",
"474 916 LINE",
"423 834 LINE",
"350 800 LINE"
);
},
{
closed = 1;
nodes = (
"418 -10 LINE SMOOTH",
"636 -10 OFFCURVE",
"698 124 OFFCURVE",
"698 297 CURVE SMOOTH",
"698 403 LINE SMOOTH",
"698 576 OFFCURVE",
"636 710 OFFCURVE",
"418 710 CURVE SMOOTH",
"340 710 LINE SMOOTH",
"144 710 OFFCURVE",
"60 576 OFFCURVE",
"60 403 CURVE SMOOTH",
"60 297 LINE SMOOTH",
"60 124 OFFCURVE",
"144 -10 OFFCURVE",
"340 -10 CURVE SMOOTH"
);
},
{
closed = 1;
nodes = (
"209 483 LINE",
"320 571 LINE",
"438 571 LINE",
"548 483 LINE",
"548 217 LINE",
"438 129 LINE",
"320 129 LINE",
"209 217 LINE"
);
}
);
width = 758;
}
);
unicode = 00D3;
},
{
glyphname = P;
lastChange = "2021-08-31 17:45:15 +0000";
layers = (
{
layerId = "E8C3E522-08D8-4F53-83D1-52B480F39AFA";
paths = (
{
closed = 1;
nodes = (
"219 0 LINE",
"219 180 LINE",
"430 180 LINE SMOOTH",
"550 180 OFFCURVE",
"628 287 OFFCURVE",
"628 412 CURVE SMOOTH",
"628 467 LINE SMOOTH",
"628 592 OFFCURVE",
"550 700 OFFCURVE",
"430 700 CURVE SMOOTH",
"70 700 LINE",
"70 0 LINE"
);
},
{
closed = 1;
nodes = (
"219 561 LINE",
"437 561 LINE",
"489 494 LINE",
"489 385 LINE",
"437 319 LINE",
"219 319 LINE"
);
}
);
width = 673;
},
{
associatedMasterId = "E8C3E522-08D8-4F53-83D1-52B480F39AFA";
layerId = "DD6431D3-15BC-4AE9-8E00-A44EDFFA70FD";
name = "Aug 23 21, 14:16";
paths = (
{
closed = 1;
nodes = (
"209 0 LINE",
"209 190 LINE",
"440 190 LINE SMOOTH",
"560 190 OFFCURVE",
"638 267 OFFCURVE",
"638 392 CURVE SMOOTH",
"638 497 LINE SMOOTH",
"638 622 OFFCURVE",
"560 700 OFFCURVE",
"440 700 CURVE SMOOTH",
"60 700 LINE",
"60 0 LINE"
);
},
{
closed = 1;
nodes = (
"209 640 LINE",
"172 620 LINE",
"260 561 LINE",
"437 561 LINE",
"489 499 LINE",
"489 390 LINE",
"437 329 LINE",
"260 329 LINE",
"172 270 LINE",
"209 250 LINE"
);
}
);
width = 688;
}
);
leftMetricsKey = H;
unicode = 0050;
},
{
glyphname = Q;
lastChange = "2021-08-31 17:45:15 +0000";
layers = (
{
layerId = "E8C3E522-08D8-4F53-83D1-52B480F39AFA";
paths = (
{
closed = 1;
nodes = (
"418 -10 LINE SMOOTH",
"636 -10 OFFCURVE",
"698 124 OFFCURVE",
"698 297 CURVE SMOOTH",
"698 403 LINE SMOOTH",
"698 576 OFFCURVE",
"636 710 OFFCURVE",
"418 710 CURVE SMOOTH",
"340 710 LINE SMOOTH",
"144 710 OFFCURVE",
"60 576 OFFCURVE",
"60 403 CURVE SMOOTH",
"60 297 LINE SMOOTH",
"60 124 OFFCURVE",
"144 -10 OFFCURVE",
"340 -10 CURVE SMOOTH"
);
},
{
closed = 1;
nodes = (
"209 483 LINE",
"320 571 LINE",
"438 571 LINE",
"548 483 LINE",
"548 217 LINE",
"438 129 LINE",
"320 129 LINE",
"209 217 LINE"
);
},
{
closed = 1;
nodes = (
"305 -149 LINE",
"377 -178 LINE",
"624 -179 LINE",
"699 -147 LINE",
"699 -40 LINE",
"304 -39 LINE"
);
}
);
width = 759;
},
{
associatedMasterId = "E8C3E522-08D8-4F53-83D1-52B480F39AFA";
layerId = "81C1DEE7-3001-4A47-A898-631D5106F415";
name = "Aug 27 21, 12:39";
paths = (
{
closed = 1;
nodes = (
"581 -20 LINE",
"654 -57 LINE",
"736 12 LINE",
"483 315 LINE",
"399 244 LINE",
"423 170 LINE"
);
},
{
closed = 1;
nodes = (
"223 473 LINE",
"334 561 LINE",
"452 561 LINE",
"562 473 LINE",
"562 219 LINE",
"452 131 LINE",
"334 131 LINE",
"223 219 LINE"
);
},
{
closed = 1;
nodes = (
"712 393 LINE",
"712 566 OFFCURVE",
"650 700 OFFCURVE",
"432 700 CURVE",
"354 700 LINE",
"158 700 OFFCURVE",
"74 566 OFFCURVE",
"74 393 CURVE",
"74 299 LINE",
"74 126 OFFCURVE",
"158 -8 OFFCURVE",
"354 -8 CURVE",
"432 -8 LINE",
"650 -8 OFFCURVE",
"712 126 OFFCURVE",
"712 299 CURVE"
);
}
);
width = 787;
},
{
associatedMasterId = "E8C3E522-08D8-4F53-83D1-52B480F39AFA";
layerId = "4FD0A04E-9F57-4815-ABBB-3FE9FCD8A36C";
name = "Aug 27 21, 12:40";
paths = (
{
closed = 1;
nodes = (
"581 -20 LINE",
"654 -57 LINE",
"736 12 LINE",
"483 315 LINE",
"399 244 LINE",
"423 170 LINE"
);
},
{
closed = 1;
nodes = (
"223 473 LINE",
"334 561 LINE",
"452 561 LINE",
"562 473 LINE",
"562 219 LINE",
"452 131 LINE",
"334 131 LINE",
"223 219 LINE"
);
},
{
closed = 1;
nodes = (
"712 393 LINE",
"712 566 OFFCURVE",
"650 700 OFFCURVE",
"432 700 CURVE",
"354 700 LINE",
"158 700 OFFCURVE",
"74 566 OFFCURVE",
"74 393 CURVE",
"74 299 LINE",
"74 126 OFFCURVE",
"158 -8 OFFCURVE",
"354 -8 CURVE",
"432 -8 LINE",
"650 -8 OFFCURVE",
"712 126 OFFCURVE",
"712 299 CURVE"
);
}
);
visible = 1;
width = 787;
}
);
leftMetricsKey = O;
rightMetricsKey = O;
unicode = 0051;
},
{
glyphname = T;
lastChange = "2021-08-31 17:45:15 +0000";
layers = (
{
layerId = "E8C3E522-08D8-4F53-83D1-52B480F39AFA";
paths = (
{
closed = 1;
nodes = (
"396 0 LINE",
"396 561 LINE",
"548 561 LINE",
"623 593 LINE",
"623 700 LINE",
"12 700 LINE",
"12 591 LINE",
"84 561 LINE",
"247 561 LINE",
"247 0 LINE"
);
}
);
width = 635;
},
{
associatedMasterId = "E8C3E522-08D8-4F53-83D1-52B480F39AFA";
components = (
{
alignment = -1;
name = _stem;
transform = "{1, 0, 0, 0.93831, 225, 0}";
},
{
alignment = -1;
name = _bar;
transform = "{1.2169, 0, 0, -1.3941, 5, 1309}";
},
{
alignment = -1;
name = _bar;
transform = "{1.2169, 0, 0, -1.3941, 85, 1309}";
}
);
layerId = "E46E4F4A-4E23-4A2D-BA0A-F050A5AF7E51";
name = "Aug 17 21, 19:57";
width = 601;
}
);
unicode = 0054;
},
{
glyphname = U;
lastChange = "2021-08-31 17:45:15 +0000";
layers = (
{
layerId = "E8C3E522-08D8-4F53-83D1-52B480F39AFA";
paths = (
{
closed = 1;
nodes = (
"396 -10 LINE SMOOTH",
"594 -10 OFFCURVE",
"657 124 OFFCURVE",
"656 297 CURVE SMOOTH",
"655 623 LINE",
"627 701 LINE",
"506 701 LINE",
"506 217 LINE",
"416 129 LINE",
"308 129 LINE",
"217 217 LINE",
"218 623 LINE",
"190 701 LINE",
"69 701 LINE",
"68 297 LINE SMOOTH",
"68 124 OFFCURVE",
"152 -10 OFFCURVE",
"328 -10 CURVE SMOOTH"
);
}
);
width = 724;
}
);
unicode = 0055;
},
{
glyphname = V;
lastChange = "2021-08-31 17:45:15 +0000";
layers = (
{
layerId = "E8C3E522-08D8-4F53-83D1-52B480F39AFA";
paths = (
{
closed = 1;
nodes = (
"427 0 LINE",
"655 640 LINE",
"626 700 LINE",
"519 700 LINE",
"360 194 LINE",
"341 136 LINE",
"152 700 LINE",
"40 700 LINE",
"10 640 LINE",
"244 0 LINE"
);
}
);
width = 665;
}
);
unicode = 0056;
},
{
glyphname = I.001;
lastChange = "2021-08-31 17:45:15 +0000";
layers = (
{
layerId = "E8C3E522-08D8-4F53-83D1-52B480F39AFA";
paths = (
{
closed = 1;
nodes = (
"556 0 LINE",
"556 87 LINE",
"461 139 LINE",
"384 139 LINE",
"384 561 LINE",
"461 561 LINE",
"556 613 LINE",
"556 700 LINE",
"45 700 LINE",
"45 611 LINE",
"137 561 LINE",
"225 561 LINE",
"225 139 LINE",
"137 139 LINE",
"45 89 LINE",
"45 0 LINE"
);
}
);
width = 601;
},
{
associatedMasterId = "E8C3E522-08D8-4F53-83D1-52B480F39AFA";
components = (
{
alignment = -1;
name = _stem;
transform = "{1, 0, 0, 0.93831, 225, 0}";
},
{
alignment = -1;
name = _bar;
transform = "{1.2169, 0, 0, -1.3941, 25, 1309}";
},
{
alignment = -1;
name = _bar;
transform = "{1.2169, 0, 0, 1.3941, 25, -558}";
},
{
alignment = -1;
name = _bar;
transform = "{1.2169, 0, 0, -1.3941, 65, 1309}";
},
{
alignment = -1;
name = _bar;
transform = "{1.2169, 0, 0, 1.3941, 65, -558}";
}
);
layerId = "D59DE561-8433-40A0-99DA-C763E57596A9";
name = "Aug 17 21, 19:51";
width = 601;
}
);
},
{
glyphname = B.alt;
lastChange = "2021-08-31 17:45:15 +0000";
layers = (
{
layerId = "E8C3E522-08D8-4F53-83D1-52B480F39AFA";
paths = (
{
closed = 1;
nodes = (
"401 0 LINE SMOOTH",
"531 0 OFFCURVE",
"605 56 OFFCURVE",
"605 198 CURVE SMOOTH",
"605 285 OFFCURVE",
"579 352 OFFCURVE",
"534 363 CURVE SMOOTH",
"500 369 LINE",
"534 377 LINE SMOOTH",
"570 386 OFFCURVE",
"590 450 OFFCURVE",
"590 515 CURVE SMOOTH",
"590 638 OFFCURVE",
"524 700 OFFCURVE",
"389 700 CURVE SMOOTH",
"70 700 LINE",
"70 0 LINE"
);
},
{
closed = 1;
nodes = (
"220 290 LINE",
"408 291 LINE",
"455 255 LINE",
"455 179 LINE",
"408 136 LINE",
"220 136 LINE"
);
},
{
closed = 1;
nodes = (
"220 575 LINE",
"394 575 LINE",
"441 538 LINE",
"441 455 LINE",
"395 416 LINE",
"220 416 LINE"
);
}
);
width = 655;
}
);
leftMetricsKey = H;
},
{
glyphname = G.alt;
lastChange = "2021-08-31 17:45:15 +0000";
layers = (
{
layerId = "E8C3E522-08D8-4F53-83D1-52B480F39AFA";
paths = (
{
closed = 1;
nodes = (
"602 0 LINE",
"602 380 LINE",
"462 380 LINE",
"461 139 LINE",
"290 139 LINE",
"179 227 LINE",
"179 473 LINE",
"290 561 LINE",
"523 561 LINE",
"603 590 LINE",
"603 700 LINE",
"310 700 LINE SMOOTH",
"114 700 OFFCURVE",
"30 576 OFFCURVE",
"30 403 CURVE SMOOTH",
"30 310 LINE SMOOTH",
"30 134 OFFCURVE",
"114 0 OFFCURVE",
"310 0 CURVE SMOOTH"
);
}
);
width = 662;
},
{
associatedMasterId = "E8C3E522-08D8-4F53-83D1-52B480F39AFA";
layerId = "65299F5B-9BBB-434C-A29C-A79624C47689";
name = "Aug 27 21, 12:45";
paths = (
{
closed = 1;
nodes = (
"511 -10 LINE",
"632 -10 LINE",
"632 420 LINE",
"303 420 LINE",
"303 311 LINE",
"375 281 LINE",
"527 281 LINE",
"511 304 LINE"
);
},
{
closed = 1;
nodes = (
"603 -10 LINE",
"603 100 LINE",
"523 129 LINE",
"290 129 LINE",
"179 217 LINE",
"179 473 LINE",
"290 561 LINE",
"523 561 LINE",
"603 590 LINE",
"603 700 LINE",
"310 700 LINE SMOOTH",
"114 700 OFFCURVE",
"30 566 OFFCURVE",
"30 393 CURVE SMOOTH",
"30 300 LINE SMOOTH",
"30 124 OFFCURVE",
"114 -10 OFFCURVE",
"310 -10 CURVE SMOOTH"
);
}
);
width = 662;
}
);
},
{
glyphname = Q.alt01;
lastChange = "2021-08-31 17:45:15 +0000";
layers = (
{
layerId = "E8C3E522-08D8-4F53-83D1-52B480F39AFA";
paths = (
{
closed = 1;
nodes = (
"412 -10 LINE SMOOTH",
"451 -10 OFFCURVE",
"486 -2 OFFCURVE",
"517 13 CURVE",
"571 -52 LINE",
"644 -89 LINE",
"726 -20 LINE",
"625 101 LINE",
"669 160 OFFCURVE",
"692 233 OFFCURVE",
"692 297 CURVE SMOOTH",
"692 403 LINE SMOOTH",
"692 576 OFFCURVE",
"630 710 OFFCURVE",
"412 710 CURVE SMOOTH",
"334 710 LINE SMOOTH",
"138 710 OFFCURVE",
"54 576 OFFCURVE",
"54 403 CURVE SMOOTH",
"54 297 LINE SMOOTH",
"54 124 OFFCURVE",
"138 -10 OFFCURVE",
"334 -10 CURVE SMOOTH"
);
},
{
closed = 1;
nodes = (
"203 483 LINE",
"314 571 LINE",
"432 571 LINE",
"542 483 LINE",
"542 217 LINE",
"432 129 LINE",
"314 129 LINE",
"203 217 LINE"
);
}
);
width = 779;
},
{
associatedMasterId = "E8C3E522-08D8-4F53-83D1-52B480F39AFA";
layerId = "3E104B00-A4E1-46EF-B8D5-DF8E83CEC869";
name = "Aug 27 21, 12:43";
paths = (
{
closed = 1;
nodes = (
"699 -10 LINE",
"774 22 LINE",
"774 129 LINE",
"379 130 LINE",
"380 20 LINE",
"452 -9 LINE"
);
},
{
closed = 1;
nodes = (
"223 473 LINE",
"334 561 LINE",
"452 561 LINE",
"562 473 LINE",
"562 219 LINE",
"452 131 LINE",
"334 131 LINE",
"223 219 LINE"
);
},
{
closed = 1;
nodes = (
"712 393 LINE",
"712 566 OFFCURVE",
"650 700 OFFCURVE",
"432 700 CURVE",
"354 700 LINE",
"158 700 OFFCURVE",
"74 566 OFFCURVE",
"74 393 CURVE",
"74 299 LINE",
"74 126 OFFCURVE",
"158 -8 OFFCURVE",
"354 -8 CURVE",
"432 -8 LINE",
"590 -8 OFFCURVE",
"712 176 OFFCURVE",
"712 299 CURVE"
);
}
);
width = 810;
}
);
},
{
glyphname = a;
lastChange = "2021-08-31 17:45:15 +0000";
layers = (
{
layerId = "E8C3E522-08D8-4F53-83D1-52B480F39AFA";
paths = (
{
closed = 1;
nodes = (
"566 0 LINE",
"566 250 LINE SMOOTH",
"566 424 OFFCURVE",
"494 510 OFFCURVE",
"282 510 CURVE SMOOTH",
"54 510 LINE",
"54 427 LINE",
"132 385 LINE",
"352 385 LINE",
"413 309 LINE",
"38 309 LINE",
"38 250 LINE SMOOTH",
"38 76 OFFCURVE",
"90 -10 OFFCURVE",
"282 -10 CURVE SMOOTH",
"353 -10 OFFCURVE",
"404 20 OFFCURVE",
"440 61 CURVE",
"485 0 LINE"
);
},
{
closed = 1;
nodes = (
"423 203 LINE",
"423 152 LINE",
"382 115 LINE",
"232 115 LINE",
"161 203 LINE"
);
}
);
width = 634;
},
{
associatedMasterId = "E8C3E522-08D8-4F53-83D1-52B480F39AFA";
layerId = "3519BB9B-2ABA-42A8-A896-C84E2225912A";
name = "Aug 27 21, 11:44";
paths = (
{
closed = 1;
nodes = (
"59 510 LINE",
"59 427 LINE",
"137 385 LINE",
"357 385 LINE",
"428 297 LINE",
"428 203 LINE",
"357 115 LINE",
"227 115 LINE",
"156 203 LINE",
"156 251 LINE",
"114 203 LINE",
"489 203 LINE",
"489 309 LINE",
"33 309 LINE",
"33 250 LINE SMOOTH",
"33 76 OFFCURVE",
"85 -10 OFFCURVE",
"287 -10 CURVE SMOOTH",
"499 -10 OFFCURVE",
"571 76 OFFCURVE",
"571 250 CURVE SMOOTH",
"571 424 OFFCURVE",
"499 510 OFFCURVE",
"287 510 CURVE SMOOTH"
);
},
{
closed = 1;
nodes = (
"571 0 LINE",
"571 309 LINE",
"428 309 LINE",
"428 84 LINE",
"490 0 LINE"
);
}
);
width = 600;
},
{
associatedMasterId = "E8C3E522-08D8-4F53-83D1-52B480F39AFA";
layerId = "A161AFE4-10E6-4513-9933-A33EF886C9E6";
name = "Aug 27 21, 11:55";
paths = (
{
closed = 0;
nodes = (
"357 115 LINE",
"247 115 LINE",
"176 203 LINE",
"176 251 LINE",
"134 203 LINE",
"489 203 LINE",
"489 309 LINE",
"33 309 LINE",
"33 250 LINE SMOOTH",
"33 76 OFFCURVE",
"85 -10 OFFCURVE",
"287 -10 CURVE SMOOTH",
"499 -10 OFFCURVE",
"571 76 OFFCURVE",
"571 250 CURVE SMOOTH"
);
},
{
closed = 1;
nodes = (
"571 424 OFFCURVE",
"499 510 OFFCURVE",
"287 510 CURVE SMOOTH",
"59 510 LINE",
"59 427 LINE",
"137 385 LINE",
"357 385 LINE",
"428 297 LINE",
"428 84 LINE",
"490 0 LINE",
"571 0 LINE",
"571 250 LINE SMOOTH"
);
},
{
closed = 1;
nodes = (
"120 510 OFFCURVE",
"33 436 OFFCURVE",
"33 249 CURVE SMOOTH",
"33 60 OFFCURVE",
"120 -8 OFFCURVE",
"297 -8 CURVE SMOOTH",
"395 -8 OFFCURVE",
"474 43 OFFCURVE",
"506 135 CURVE",
"458 179 LINE",
"388 115 LINE",
"246 115 LINE",
"177 199 LINE",
"177 298 LINE",
"245 384 LINE",
"387 384 LINE",
"458 318 LINE",
"495 401 LINE",
"458 465 OFFCURVE",
"384 510 OFFCURVE",
"297 510 CURVE SMOOTH"
);
}
);
visible = 1;
width = 600;
}
);
rightMetricsKey = n;
unicode = 0061;
},
{
glyphname = b;
lastChange = "2021-08-31 17:45:15 +0000";
layers = (
{
layerId = "E8C3E522-08D8-4F53-83D1-52B480F39AFA";
paths = (
{
closed = 1;
nodes = (
"540 -10 OFFCURVE",
"627 60 OFFCURVE",
"627 249 CURVE SMOOTH",
"627 416 OFFCURVE",
"540 510 OFFCURVE",
"363 510 CURVE SMOOTH",
"303 510 OFFCURVE",
"250 489 OFFCURVE",
"210 455 CURVE",
"210 668 LINE",
"165 750 LINE",
"68 750 LINE",
"68 0 LINE",
"166 0 LINE",
"204 69 LINE",
"244 22 OFFCURVE",
"300 -10 OFFCURVE",
"363 -10 CURVE SMOOTH"
);
},
{
closed = 1;
nodes = (
"273 384 LINE",
"415 384 LINE",
"483 298 LINE",
"483 199 LINE",
"414 115 LINE",
"272 115 LINE",
"211 171 LINE",
"211 326 LINE"
);
}
);
width = 677;
}
);
leftMetricsKey = n;
rightMetricsKey = o;
unicode = 0062;
},
{
glyphname = c;
lastChange = "2021-08-31 17:45:15 +0000";
layers = (
{
layerId = "E8C3E522-08D8-4F53-83D1-52B480F39AFA";
paths = (
{
closed = 1;
nodes = (
"528 -10 OFFCURVE",
"604 32 OFFCURVE",
"616 177 CURVE",
"475 177 LINE",
"424 115 LINE",
"264 115 LINE",
"193 203 LINE",
"193 297 LINE",
"264 385 LINE",
"424 385 LINE",
"475 322 LINE",
"616 322 LINE",
"605 468 OFFCURVE",
"528 510 OFFCURVE",
"334 510 CURVE SMOOTH",
"122 510 OFFCURVE",
"50 424 OFFCURVE",
"50 250 CURVE SMOOTH",
"50 76 OFFCURVE",
"122 -10 OFFCURVE",
"334 -10 CURVE SMOOTH"
);
}
);
width = 666;
},
{
associatedMasterId = "E8C3E522-08D8-4F53-83D1-52B480F39AFA";
layerId = "D2FAD603-E9FA-4C99-B3FD-CE6DE5820DDD";
name = "Aug 27 21, 10:44";
paths = (
{
closed = 1;
nodes = (
"52 238 LINE",
"52 75 OFFCURVE",
"118 -10 OFFCURVE",
"316 -10 CURVE",
"353 -10 LINE",
"465 -10 OFFCURVE",
"535 41 OFFCURVE",
"555 105 CURVE",
"444 168 LINE",
"406 120 LINE",
"266 120 LINE",
"195 208 LINE",
"195 297 LINE",
"266 385 LINE",
"403 385 LINE",
"441 337 LINE",
"552 400 LINE",
"532 464 OFFCURVE",
"462 515 OFFCURVE",
"353 515 CURVE",
"316 515 LINE",
"118 515 OFFCURVE",
"52 430 OFFCURVE",
"52 267 CURVE"
);
}
);
visible = 1;
width = 600;
},
{
associatedMasterId = "E8C3E522-08D8-4F53-83D1-52B480F39AFA";
layerId = "2EC3805C-C65E-4527-A598-508D987DE936";
name = "Aug 27 21, 10:47";
paths = (
{
closed = 1;
nodes = (
"125 510 OFFCURVE",
"53 424 OFFCURVE",
"53 250 CURVE SMOOTH",
"53 76 OFFCURVE",
"125 -10 OFFCURVE",
"337 -10 CURVE SMOOTH",
"485 -10 LINE",
"485 73 LINE",
"407 115 LINE",
"267 115 LINE",
"196 203 LINE",
"196 297 LINE",
"267 385 LINE",
"407 385 LINE",
"485 427 LINE",
"485 510 LINE",
"337 510 LINE SMOOTH"
);
}
);
width = 600;
},
{
associatedMasterId = "E8C3E522-08D8-4F53-83D1-52B480F39AFA";
layerId = "D5B35501-F1C0-426E-A919-C2C0A06EB76D";
name = "Aug 27 21, 12:49";
paths = (
{
closed = 1;
nodes = (
"125 510 OFFCURVE",
"53 424 OFFCURVE",
"53 250 CURVE SMOOTH",
"53 76 OFFCURVE",
"125 -10 OFFCURVE",
"337 -10 CURVE SMOOTH",
"520 -10 LINE",
"520 73 LINE",
"442 115 LINE",
"267 115 LINE",
"196 203 LINE",
"196 297 LINE",
"267 385 LINE",
"437 385 LINE",
"515 427 LINE",
"515 510 LINE",
"337 510 LINE SMOOTH"
);
}
);
width = 573;
}
);
leftMetricsKey = o;
rightMetricsKey = o;
unicode = 0063;
},
{
glyphname = d;
lastChange = "2021-08-31 17:45:15 +0000";
layers = (
{
layerId = "E8C3E522-08D8-4F53-83D1-52B480F39AFA";
paths = (
{
closed = 1;
nodes = (
"378 -10 OFFCURVE",
"434 23 OFFCURVE",
"474 71 CURVE",
"513 0 LINE",
"610 0 LINE",
"610 668 LINE",
"565 750 LINE",
"468 750 LINE",
"468 454 LINE",
"428 488 OFFCURVE",
"374 510 OFFCURVE",
"314 510 CURVE SMOOTH",
"137 510 OFFCURVE",
"50 416 OFFCURVE",
"50 249 CURVE SMOOTH",
"50 60 OFFCURVE",
"137 -10 OFFCURVE",
"314 -10 CURVE SMOOTH"
);
},
{
closed = 1;
nodes = (
"194 298 LINE",
"262 384 LINE",
"404 384 LINE",
"468 325 LINE",
"468 173 LINE",
"405 115 LINE",
"263 115 LINE",
"194 199 LINE"
);
}
);
width = 678;
}
);
leftMetricsKey = "=|b";
rightMetricsKey = "=|n";
unicode = 0064;
},
{
glyphname = e;
lastChange = "2021-08-31 17:45:15 +0000";
layers = (
{
layerId = "E8C3E522-08D8-4F53-83D1-52B480F39AFA";
paths = (
{
closed = 1;
nodes = (
"562 -10 LINE",
"562 73 LINE",
"484 115 LINE",
"264 115 LINE",
"203 191 LINE",
"588 191 LINE",
"588 250 LINE SMOOTH",
"588 424 OFFCURVE",
"536 510 OFFCURVE",
"334 510 CURVE SMOOTH",
"122 510 OFFCURVE",
"50 424 OFFCURVE",
"50 250 CURVE SMOOTH",
"50 76 OFFCURVE",
"122 -10 OFFCURVE",
"334 -10 CURVE SMOOTH"
);
},
{
closed = 1;
nodes = (
"264 385 LINE",
"394 385 LINE",
"465 297 LINE",
"193 297 LINE"
);
}
);
width = 638;
}
);
leftMetricsKey = o;
rightMetricsKey = o;
unicode = 0065;
},
{
glyphname = f;
lastChange = "2021-08-31 17:45:15 +0000";
layers = (
{
layerId = "E8C3E522-08D8-4F53-83D1-52B480F39AFA";
paths = (
{
closed = 1;
nodes = (
"247 0 LINE",
"247 317 LINE",
"429 317 LINE",
"504 349 LINE",
"504 456 LINE",
"247 456 LINE",
"247 556 LINE",
"309 635 LINE",
"384 635 LINE",
"435 572 LINE",
"576 572 LINE",
"565 718 OFFCURVE",
"488 760 OFFCURVE",
"324 760 CURVE SMOOTH",
"170 760 OFFCURVE",
"104 662 OFFCURVE",
"104 545 CURVE SMOOTH",
"104 456 LINE",
"24 456 LINE",
"24 317 LINE",
"104 317 LINE",
"104 0 LINE"
);
}
);
width = 571;
},
{
associatedMasterId = "E8C3E522-08D8-4F53-83D1-52B480F39AFA";
layerId = "94E513E8-CF19-43B3-AB4C-C41C070F3FC2";
name = "Aug 27 21, 13:25";
paths = (
{
closed = 1;
nodes = (
"187 750 LINE",
"106 750 LINE",
"44 666 LINE",
"44 0 LINE",
"187 0 LINE"
);
},
{
closed = 1;
nodes = (
"284 625 LINE",
"335 567 LINE",
"335 562 LINE",
"476 562 LINE",
"465 708 OFFCURVE",
"388 750 OFFCURVE",
"194 750 CURVE",
"157 750 LINE",
"157 625 LINE"
);
},
{
closed = 1;
nodes = (
"319 247 LINE",
"394 279 LINE",
"394 386 LINE",
"90 386 LINE",
"90 247 LINE"
);
},
{
closed = 1;
nodes = (
"556 240 LINE",
"556 323 LINE",
"478 365 LINE",
"258 365 LINE",
"187 453 LINE",
"187 547 LINE",
"258 635 LINE",
"388 635 LINE",
"459 547 LINE",
"459 499 LINE",
"501 547 LINE",
"126 547 LINE",
"126 441 LINE",
"582 441 LINE",
"582 500 LINE SMOOTH",
"582 674 OFFCURVE",
"530 760 OFFCURVE",
"328 760 CURVE SMOOTH",
"116 760 OFFCURVE",
"44 674 OFFCURVE",
"44 500 CURVE SMOOTH",
"44 326 OFFCURVE",
"116 240 OFFCURVE",
"328 240 CURVE SMOOTH"
);
}
);
visible = 1;
width = 520;
}
);
unicode = 0066;
},
{
glyphname = g;
lastChange = "2021-08-31 17:45:15 +0000";
layers = (
{
layerId = "E8C3E522-08D8-4F53-83D1-52B480F39AFA";
paths = (
{
closed = 1;
nodes = (
"517 -260 OFFCURVE",
"617 -209 OFFCURVE",
"617 -84 CURVE SMOOTH",
"617 19 OFFCURVE",
"554 83 OFFCURVE",
"346 83 CURVE SMOOTH",
"179 83 LINE",
"208 132 LINE",
"238 127 OFFCURVE",
"273 125 OFFCURVE",
"316 125 CURVE SMOOTH",
"528 125 OFFCURVE",
"579 190 OFFCURVE",
"579 320 CURVE SMOOTH",
"579 345 OFFCURVE",
"578 382 OFFCURVE",
"565 411 CURVE",
"607 417 OFFCURVE",
"628 460 OFFCURVE",
"628 540 CURVE",
"516 540 LINE",
"511 501 LINE",
"498 489 LINE",
"464 502 OFFCURVE",
"412 510 OFFCURVE",
"316 510 CURVE SMOOTH",
"114 510 OFFCURVE",
"53 442 OFFCURVE",
"53 330 CURVE SMOOTH",
"53 257 OFFCURVE",
"73 183 OFFCURVE",
"114 156 CURVE",
"80 140 OFFCURVE",
"58 101 OFFCURVE",
"58 65 CURVE SMOOTH",
"58 38 OFFCURVE",
"69 14 OFFCURVE",
"85 -1 CURVE",
"56 -21 OFFCURVE",
"30 -61 OFFCURVE",
"30 -104 CURVE SMOOTH",
"30 -207 OFFCURVE",
"81 -260 OFFCURVE",
"306 -260 CURVE SMOOTH"
);
},
{
closed = 1;
nodes = (
"199 -29 LINE",
"441 -29 LINE",
"481 -93 LINE",
"441 -147 LINE",
"199 -147 LINE",
"159 -93 LINE"
);
},
{
closed = 1;
nodes = (
"196 367 LINE",
"257 415 LINE",
"375 415 LINE",
"436 367 LINE",
"436 278 LINE",
"375 220 LINE",
"257 220 LINE",
"196 278 LINE"
);
}
);
width = 654;
}
);
unicode = 0067;
},
{
glyphname = h;
lastChange = "2021-08-31 17:45:15 +0000";
layers = (
{
layerId = "E8C3E522-08D8-4F53-83D1-52B480F39AFA";
paths = (
{
closed = 1;
nodes = (
"626 0 LINE",
"626 318 LINE SMOOTH",
"626 429 OFFCURVE",
"527 510 OFFCURVE",
"374 510 CURVE SMOOTH",
"308 510 OFFCURVE",
"252 487 OFFCURVE",
"211 455 CURVE",
"210 668 LINE",
"165 750 LINE",
"68 750 LINE",
"69 0 LINE",
"212 0 LINE",
"211 294 LINE",
"273 373 LINE",
"410 373 LINE",
"481 291 LINE",
"481 0 LINE"
);
}
);
width = 694;
},
{
associatedMasterId = "E8C3E522-08D8-4F53-83D1-52B480F39AFA";
layerId = "ECD00BC0-BD78-4F6C-9250-6E17963939FF";
name = "Aug 27 21, 11:29";
paths = (
{
closed = 1;
nodes = (
"691 -16 LINE",
"691 91 LINE",
"618 133 LINE",
"618 318 LINE SMOOTH",
"618 429 OFFCURVE",
"519 516 OFFCURVE",
"366 516 CURVE SMOOTH",
"241 516 OFFCURVE",
"153 429 OFFCURVE",
"127 351 CURVE",
"198 288 LINE",
"265 373 LINE",
"402 373 LINE",
"473 291 LINE",
"473 146 LINE SMOOTH",
"473 42 OFFCURVE",
"534 -16 OFFCURVE",
"650 -16 CURVE SMOOTH"
);
},
{
closed = 1;
nodes = (
"204 0 LINE",
"202 718 LINE",
"157 800 LINE",
"60 800 LINE",
"61 0 LINE"
);
}
);
width = 701;
}
);
leftMetricsKey = n;
rightMetricsKey = n;
unicode = 0068;
},
{
glyphname = i;
lastChange = "2021-09-01 03:57:12 +0000";
layers = (
{
layerId = "E8C3E522-08D8-4F53-83D1-52B480F39AFA";
paths = (
{
closed = 1;
nodes = (
"173 570 LINE",
"267 667 LINE",
"173 755 LINE",
"79 657 LINE"
);
},
{
closed = 1;
nodes = (
"239 0 LINE",
"239 500 LINE",
"158 500 LINE",
"96 444 LINE",
"96 0 LINE"
);
}
);
width = 322;
},
{
associatedMasterId = "E8C3E522-08D8-4F53-83D1-52B480F39AFA";
layerId = "F51CA5CC-60D7-4B18-8324-48334BCAE960";
name = "Aug 27 21, 11:29";
paths = (
{
closed = 1;
nodes = (
"237 667 LINE",
"143 755 LINE",
"49 657 LINE",
"143 570 LINE"
);
},
{
closed = 1;
nodes = (
"280 -16 LINE",
"280 91 LINE",
"205 133 LINE",
"205 500 LINE",
"102 500 LINE",
"40 416 LINE",
"40 146 LINE SMOOTH",
"40 42 OFFCURVE",
"121 -16 OFFCURVE",
"237 -16 CURVE SMOOTH"
);
}
);
width = 300;
}
);
unicode = 0069;
},
{
glyphname = l;
lastChange = "2021-08-31 17:45:15 +0000";
layers = (
{
layerId = "E8C3E522-08D8-4F53-83D1-52B480F39AFA";
paths = (
{
closed = 1;
nodes = (
"213 0 LINE",
"213 750 LINE",
"132 750 LINE",
"70 666 LINE",
"70 0 LINE"
);
}
);
width = 283;
}
);
unicode = 006C;
},
{
glyphname = m;
lastChange = "2021-08-31 17:45:15 +0000";
layers = (
{
layerId = "E8C3E522-08D8-4F53-83D1-52B480F39AFA";
paths = (
{
closed = 1;
nodes = (
"983 0 LINE",
"983 318 LINE SMOOTH",
"983 429 OFFCURVE",
"886 510 OFFCURVE",
"753 510 CURVE SMOOTH",
"668 510 OFFCURVE",
"600 472 OFFCURVE",
"557 424 CURVE",
"517 477 OFFCURVE",
"447 510 OFFCURVE",
"362 510 CURVE SMOOTH",
"288 510 OFFCURVE",
"231 482 OFFCURVE",
"191 443 CURVE",
"149 500 LINE",
"68 500 LINE",
"68 0 LINE",
"211 0 LINE",
"211 316 LINE",
"276 393 LINE",
"378 393 LINE",
"449 311 LINE",
"449 0 LINE",
"592 0 LINE",
"592 315 LINE",
"667 393 LINE",
"769 393 LINE",
"840 311 LINE",
"840 0 LINE"
);
}
);
width = 1051;
}
);
leftMetricsKey = n;
rightMetricsKey = n;
unicode = 006D;
},
{
glyphname = n;
lastChange = "2021-08-31 17:45:15 +0000";
layers = (
{
layerId = "E8C3E522-08D8-4F53-83D1-52B480F39AFA";
paths = (
{
closed = 1;
nodes = (
"602 0 LINE",
"602 318 LINE SMOOTH",
"602 429 OFFCURVE",
"505 510 OFFCURVE",
"372 510 CURVE SMOOTH",
"297 510 OFFCURVE",
"236 481 OFFCURVE",
"193 441 CURVE",
"149 500 LINE",
"68 500 LINE",
"68 0 LINE",
"211 0 LINE",
"211 315 LINE",
"286 393 LINE",
"388 393 LINE",
"459 311 LINE",
"459 0 LINE"
);
}
);
width = 670;
},
{
associatedMasterId = "E8C3E522-08D8-4F53-83D1-52B480F39AFA";
layerId = "2A31147E-5DE2-4634-870C-46A292FE706E";
name = "Aug 27 21, 11:28";
paths = (
{
closed = 1;
nodes = (
"205 0 LINE",
"205 416 LINE",
"143 500 LINE",
"40 500 LINE",
"40 0 LINE"
);
},
{
closed = 1;
nodes = (
"691 -16 LINE",
"691 91 LINE",
"618 133 LINE",
"618 318 LINE SMOOTH",
"618 429 OFFCURVE",
"499 516 OFFCURVE",
"366 516 CURVE SMOOTH",
"241 516 OFFCURVE",
"153 429 OFFCURVE",
"127 351 CURVE",
"198 308 LINE",
"280 393 LINE",
"382 393 LINE",
"453 311 LINE",
"453 146 LINE SMOOTH",
"453 42 OFFCURVE",
"534 -16 OFFCURVE",
"650 -16 CURVE SMOOTH"
);
}
);
width = 711;
}
);
unicode = 006E;
},
{
glyphname = ntilde;
lastChange = "2021-08-31 17:45:15 +0000";
layers = (
{
layerId = "E8C3E522-08D8-4F53-83D1-52B480F39AFA";
paths = (
{
closed = 1;
nodes = (
"602 0 LINE",
"602 318 LINE SMOOTH",
"602 429 OFFCURVE",
"505 510 OFFCURVE",
"372 510 CURVE SMOOTH",
"297 510 OFFCURVE",
"236 481 OFFCURVE",
"193 441 CURVE",
"149 500 LINE",
"68 500 LINE",
"68 0 LINE",
"211 0 LINE",
"211 315 LINE",
"286 393 LINE",
"388 393 LINE",
"459 311 LINE",
"459 0 LINE"
);
},
{
closed = 1;
nodes = (
"257 587 LINE",
"284 630 LINE",
"304 615 OFFCURVE",
"344 591 OFFCURVE",
"413 591 CURVE SMOOTH",
"468 591 OFFCURVE",
"514 627 OFFCURVE",
"511 727 CURVE",
"419 727 LINE",
"413 680 LINE",
"388 701 OFFCURVE",
"345 726 OFFCURVE",
"294 726 CURVE SMOOTH",
"232 726 OFFCURVE",
"173 681 OFFCURVE",
"178 587 CURVE"
);
}
);
width = 670;
}
);
leftMetricsKey = n;
rightMetricsKey = n;
unicode = 00F1;
},
{
glyphname = o;
lastChange = "2021-08-31 17:45:15 +0000";
layers = (
{
layerId = "E8C3E522-08D8-4F53-83D1-52B480F39AFA";
paths = (
{
closed = 1;
nodes = (
"546 -10 OFFCURVE",
"618 76 OFFCURVE",
"618 250 CURVE SMOOTH",
"618 424 OFFCURVE",
"546 510 OFFCURVE",
"334 510 CURVE SMOOTH",
"122 510 OFFCURVE",
"50 424 OFFCURVE",
"50 250 CURVE SMOOTH",
"50 76 OFFCURVE",
"122 -10 OFFCURVE",
"334 -10 CURVE SMOOTH"
);
},
{
closed = 1;
nodes = (
"193 297 LINE",
"264 385 LINE",
"404 385 LINE",
"475 297 LINE",
"475 203 LINE",
"404 115 LINE",
"264 115 LINE",
"193 203 LINE"
);
}
);
width = 668;
}
);
unicode = 006F;
},
{
glyphname = p;
lastChange = "2021-08-31 17:45:15 +0000";
layers = (
{
layerId = "E8C3E522-08D8-4F53-83D1-52B480F39AFA";
paths = (
{
closed = 1;
nodes = (
"541 -10 OFFCURVE",
"628 60 OFFCURVE",
"628 249 CURVE SMOOTH",
"628 416 OFFCURVE",
"541 510 OFFCURVE",
"364 510 CURVE SMOOTH",
"297 510 OFFCURVE",
"238 483 OFFCURVE",
"197 442 CURVE",
"165 500 LINE",
"68 500 LINE",
"69 -168 LINE",
"114 -250 LINE",
"212 -250 LINE",
"211 62 LINE",
"251 19 OFFCURVE",
"304 -10 OFFCURVE",
"364 -10 CURVE SMOOTH"
);
},
{
closed = 1;
nodes = (
"274 384 LINE",
"416 384 LINE",
"484 298 LINE",
"484 199 LINE",
"415 115 LINE",
"273 115 LINE",
"211 172 LINE",
"210 325 LINE"
);
}
);
width = 678;
},
{
associatedMasterId = "E8C3E522-08D8-4F53-83D1-52B480F39AFA";
layerId = "3D91112C-FEB9-4210-8579-6B1BA4CC3072";
name = "Aug 23 21, 13:26";
paths = (
{
closed = 1;
nodes = (
"25 -200 LINE",
"142 -200 LINE",
"187 -118 LINE",
"189 500 LINE",
"26 500 LINE"
);
},
{
closed = 1;
nodes = (
"268 500 OFFCURVE",
"174 473 OFFCURVE",
"123 421 CURVE",
"168 361 LINE",
"291 413 LINE",
"441 318 LINE",
"441 195 LINE",
"331 88 LINE",
"263 88 LINE",
"168 165 LINE",
"112 115 LINE",
"145 52 OFFCURVE",
"238 -15 OFFCURVE",
"337 -15 CURVE SMOOTH",
"493 -15 OFFCURVE",
"593 41 OFFCURVE",
"593 208 CURVE",
"593 312 LINE",
"588 448 OFFCURVE",
"499 500 OFFCURVE",
"363 500 CURVE SMOOTH"
);
}
);
width = 600;
},
{
associatedMasterId = "E8C3E522-08D8-4F53-83D1-52B480F39AFA";
layerId = "2F649010-3EB7-4DF7-99D2-1042B3924CD0";
name = "Aug 23 21, 13:28";
paths = (
{
closed = 1;
nodes = (
"670 -16 LINE",
"670 91 LINE",
"597 133 LINE",
"597 318 LINE SMOOTH",
"597 429 OFFCURVE",
"498 516 OFFCURVE",
"365 516 CURVE SMOOTH",
"240 516 OFFCURVE",
"132 429 OFFCURVE",
"106 351 CURVE",
"177 288 LINE",
"244 373 LINE",
"381 373 LINE",
"452 291 LINE",
"452 146 LINE SMOOTH",
"452 42 OFFCURVE",
"513 -16 OFFCURVE",
"629 -16 CURVE SMOOTH"
);
}
);
width = 600;
},
{
associatedMasterId = "E8C3E522-08D8-4F53-83D1-52B480F39AFA";
layerId = "B8371EAD-8DD0-4D34-9AB1-06D2026F0CBF";
name = "Aug 27 21, 11:43";
paths = (
{
closed = 1;
nodes = (
"464 218 LINE",
"394 131 LINE",
"257 131 LINE",
"186 219 LINE",
"118 156 LINE",
"158 58 OFFCURVE",
"250 -9 OFFCURVE",
"344 -9 CURVE",
"516 -9 OFFCURVE",
"597 108 OFFCURVE",
"597 238 CURVE",
"597 263 LINE",
"597 393 OFFCURVE",
"516 510 OFFCURVE",
"344 510 CURVE",
"250 510 OFFCURVE",
"158 443 OFFCURVE",
"118 345 CURVE",
"186 282 LINE",
"257 370 LINE",
"394 370 LINE",
"464 283 LINE"
);
},
{
closed = 1;
nodes = (
"187 418 LINE",
"142 500 LINE",
"45 500 LINE",
"45 -168 LINE",
"90 -250 LINE",
"187 -250 LINE"
);
}
);
width = 655;
}
);
leftMetricsKey = n;
rightMetricsKey = o;
unicode = 0070;
},
{
glyphname = q;
lastChange = "2021-08-31 17:45:15 +0000";
layers = (
{
layerId = "E8C3E522-08D8-4F53-83D1-52B480F39AFA";
paths = (
{
closed = 1;
nodes = (
"374 -10 OFFCURVE",
"427 19 OFFCURVE",
"467 62 CURVE",
"466 -250 LINE",
"564 -250 LINE",
"609 -168 LINE",
"610 500 LINE",
"513 500 LINE",
"481 442 LINE",
"440 483 OFFCURVE",
"381 510 OFFCURVE",
"314 510 CURVE SMOOTH",
"137 510 OFFCURVE",
"50 416 OFFCURVE",
"50 249 CURVE SMOOTH",
"50 60 OFFCURVE",
"137 -10 OFFCURVE",
"314 -10 CURVE SMOOTH"
);
},
{
closed = 1;
nodes = (
"194 298 LINE",
"262 384 LINE",
"404 384 LINE",
"468 325 LINE",
"467 172 LINE",
"405 115 LINE",
"263 115 LINE",
"194 199 LINE"
);
}
);
width = 678;
},
{
associatedMasterId = "E8C3E522-08D8-4F53-83D1-52B480F39AFA";
layerId = "C88975D6-7C1D-459F-9E22-202F4EADC34B";
name = "Aug 18 21, 13:23";
paths = (
{
closed = 1;
nodes = (
"516 491 LINE",
"475 400 LINE",
"477 -118 LINE",
"522 -200 LINE",
"639 -200 LINE",
"638 478 LINE"
);
},
{
closed = 1;
nodes = (
"171 514 OFFCURVE",
"60 398 OFFCURVE",
"60 249 CURVE SMOOTH",
"60 82 OFFCURVE",
"149 0 OFFCURVE",
"317 0 CURVE SMOOTH",
"416 0 OFFCURVE",
"483 60 OFFCURVE",
"512 105 CURVE",
"512 152 LINE",
"361 89 LINE",
"244 183 LINE",
"241 309 LINE",
"329 400 LINE",
"436 400 LINE",
"485 400 LINE",
"638 478 LINE",
"573 491 OFFCURVE",
"433 514 OFFCURVE",
"329 514 CURVE SMOOTH"
);
}
);
width = 699;
},
{
associatedMasterId = "E8C3E522-08D8-4F53-83D1-52B480F39AFA";
layerId = "390DEFBE-BA9F-4EB1-8444-8DEF94FE1D79";
name = "Aug 27 21, 11:35";
paths = (
{
closed = 1;
nodes = (
"429 500 LINE",
"431 -118 LINE",
"476 -200 LINE",
"593 -200 LINE",
"592 500 LINE"
);
},
{
closed = 1;
nodes = (
"119 500 OFFCURVE",
"30 448 OFFCURVE",
"25 312 CURVE",
"25 208 LINE",
"25 41 OFFCURVE",
"125 -15 OFFCURVE",
"281 -15 CURVE SMOOTH",
"380 -15 OFFCURVE",
"473 52 OFFCURVE",
"506 115 CURVE",
"450 165 LINE",
"355 88 LINE",
"287 88 LINE",
"177 199 LINE",
"177 318 LINE",
"327 413 LINE",
"450 361 LINE",
"495 421 LINE",
"444 473 OFFCURVE",
"350 500 OFFCURVE",
"255 500 CURVE SMOOTH"
);
}
);
visible = 1;
width = 633;
}
);
leftMetricsKey = o;
rightMetricsKey = "=|p";
unicode = 0071;
},
{
glyphname = r;
lastChange = "2021-08-31 17:45:15 +0000";
layers = (
{
layerId = "E8C3E522-08D8-4F53-83D1-52B480F39AFA";
paths = (
{
closed = 1;
nodes = (
"211 0 LINE",
"211 305 LINE",
"276 377 LINE",
"409 377 LINE",
"409 510 LINE",
"372 510 LINE SMOOTH",
"300 510 OFFCURVE",
"240 474 OFFCURVE",
"197 435 CURVE",
"149 500 LINE",
"68 500 LINE",
"68 0 LINE"
);
}
);
width = 419;
}
);
leftMetricsKey = n;
unicode = 0072;
},
{
glyphname = u;
lastChange = "2021-08-31 17:45:15 +0000";
layers = (
{
layerId = "E8C3E522-08D8-4F53-83D1-52B480F39AFA";
paths = (
{
closed = 1;
nodes = (
"372 -10 OFFCURVE",
"429 20 OFFCURVE",
"469 61 CURVE",
"511 0 LINE",
"592 0 LINE",
"592 500 LINE",
"449 500 LINE",
"449 190 LINE",
"384 113 LINE",
"282 113 LINE",
"211 195 LINE",
"211 500 LINE",
"68 500 LINE",
"68 188 LINE SMOOTH",
"68 77 OFFCURVE",
"165 -10 OFFCURVE",
"298 -10 CURVE SMOOTH"
);
}
);
width = 660;
}
);
leftMetricsKey = n;
rightMetricsKey = n;
unicode = 0075;
},
{
glyphname = v;
lastChange = "2021-08-31 17:45:15 +0000";
layers = (
{
layerId = "E8C3E522-08D8-4F53-83D1-52B480F39AFA";
paths = (
{
closed = 1;
nodes = (
"365 0 LINE",
"561 444 LINE",
"539 500 LINE",
"432 500 LINE",
"286 121 LINE",
"146 500 LINE",
"39 500 LINE",
"10 444 LINE",
"206 0 LINE"
);
}
);
width = 571;
}
);
unicode = 0076;
},
{
glyphname = w;
lastChange = "2021-08-31 17:45:15 +0000";
layers = (
{
layerId = "E8C3E522-08D8-4F53-83D1-52B480F39AFA";
paths = (
{
closed = 1;
nodes = (
"324 0 LINE",
"447 432 LINE",
"413 432 LINE",
"521 0 LINE",
"686 0 LINE",
"824 445 LINE",
"799 500 LINE",
"698 500 LINE",
"609 133 LINE",
"516 500 LINE",
"347 500 LINE",
"245 131 LINE",
"166 500 LINE",
"59 500 LINE",
"20 445 LINE",
"159 0 LINE"
);
}
);
width = 844;
}
);
unicode = 0077;
},
{
glyphname = a.alt;
lastChange = "2021-08-31 17:45:15 +0000";
layers = (
{
layerId = "E8C3E522-08D8-4F53-83D1-52B480F39AFA";
paths = (
{
closed = 1;
nodes = (
"381 -10 OFFCURVE",
"439 16 OFFCURVE",
"479 61 CURVE",
"513 0 LINE",
"610 0 LINE",
"610 500 LINE",
"513 500 LINE",
"481 442 LINE",
"440 483 OFFCURVE",
"381 510 OFFCURVE",
"314 510 CURVE SMOOTH",
"137 510 OFFCURVE",
"50 436 OFFCURVE",
"50 249 CURVE SMOOTH",
"50 60 OFFCURVE",
"137 -10 OFFCURVE",
"314 -10 CURVE SMOOTH"
);
},
{
closed = 1;
nodes = (
"194 298 LINE",
"262 384 LINE",
"404 384 LINE",
"468 325 LINE",
"468 173 LINE",
"405 115 LINE",
"263 115 LINE",
"194 199 LINE"
);
}
);
width = 678;
}
);
leftMetricsKey = o;
rightMetricsKey = n;
},
{
glyphname = g.alt;
lastChange = "2021-08-31 17:45:15 +0000";
layers = (
{
layerId = "E8C3E522-08D8-4F53-83D1-52B480F39AFA";
paths = (
{
closed = 1;
nodes = (
"504 -260 OFFCURVE",
"610 -162 OFFCURVE",
"610 -45 CURVE SMOOTH",
"610 500 LINE",
"513 500 LINE",
"481 442 LINE",
"440 483 OFFCURVE",
"381 510 OFFCURVE",
"314 510 CURVE SMOOTH",
"137 510 OFFCURVE",
"50 436 OFFCURVE",
"50 249 CURVE SMOOTH",
"50 60 OFFCURVE",
"137 -9 OFFCURVE",
"314 -9 CURVE SMOOTH",
"374 -9 OFFCURVE",
"428 12 OFFCURVE",
"467 49 CURVE",
"467 -56 LINE",
"405 -135 LINE",
"270 -135 LINE",
"209 -72 LINE",
"68 -72 LINE",
"79 -218 OFFCURVE",
"156 -260 OFFCURVE",
"330 -260 CURVE SMOOTH"
);
},
{
closed = 1;
nodes = (
"194 298 LINE",
"262 384 LINE",
"404 384 LINE",
"468 325 LINE",
"467 172 LINE",
"405 115 LINE",
"263 115 LINE",
"194 199 LINE"
);
}
);
width = 678;
}
);
leftMetricsKey = o;
rightMetricsKey = n;
},
{
glyphname = bar;
lastChange = "2021-08-31 17:45:15 +0000";
layers = (
{
layerId = "E8C3E522-08D8-4F53-83D1-52B480F39AFA";
paths = (
{
closed = 1;
nodes = (
"71 -200 LINE",
"71 800 LINE",
"0 800 LINE",
"0 -200 LINE"
);
}
);
width = 71;
}
);
unicode = 007C;
},
{
glyphname = acute;
lastChange = "2021-08-31 17:45:15 +0000";
layers = (
{
layerId = "E8C3E522-08D8-4F53-83D1-52B480F39AFA";
paths = (
{
closed = 1;
nodes = (
"73 557 LINE",
"246 695 LINE",
"213 739 LINE",
"134 739 LINE",
"0 612 LINE",
"26 557 LINE"
);
}
);
width = 246;
}
);
unicode = 00B4;
},
{
color = 4;
glyphname = _accent;
lastChange = "2021-08-30 17:55:15 +0000";
layers = (
{
layerId = "E8C3E522-08D8-4F53-83D1-52B480F39AFA";
paths = (
{
closed = 1;
nodes = (
"327 736 LINE",
"249 857 LINE",
"0 712 LINE",
"74 609 LINE"
);
}
);
width = 327;
}
);
},
{
color = 4;
glyphname = _dot;
lastChange = "2021-08-30 17:55:15 +0000";
layers = (
{
layerId = "E8C3E522-08D8-4F53-83D1-52B480F39AFA";
paths = (
{
closed = 1;
nodes = (
"224 595 LINE",
"124 693 LINE",
"0 581 LINE",
"102 486 LINE"
);
}
);
width = 224;
}
);
},
{
color = 4;
glyphname = _halfarch;
lastChange = "2021-08-30 17:55:15 +0000";
layers = (
{
layerId = "E8C3E522-08D8-4F53-83D1-52B480F39AFA";
paths = (
{
closed = 1;
nodes = (
"343 252 LINE",
"343 322 LINE SMOOTH",
"343 438 OFFCURVE",
"265 510 OFFCURVE",
"145 510 CURVE SMOOTH",
"0 510 LINE",
"0 420 LINE",
"96 420 LINE",
"184 324 LINE",
"184 252 LINE"
);
}
);
width = 343;
}
);
},
{
color = 4;
glyphname = _shortstem;
lastChange = "2021-08-30 17:55:15 +0000";
layers = (
{
layerId = "E8C3E522-08D8-4F53-83D1-52B480F39AFA";
paths = (
{
closed = 1;
nodes = (
"159 0 LINE",
"159 396 LINE",
"111 500 LINE",
"0 500 LINE",
"0 0 LINE"
);
}
);
width = 159;
}
);
},
{
color = 4;
glyphname = _stem;
lastChange = "2021-08-30 17:55:15 +0000";
layers = (
{
layerId = "E8C3E522-08D8-4F53-83D1-52B480F39AFA";
paths = (
{
closed = 1;
nodes = (
"159 0 LINE",
"159 696 LINE",
"111 800 LINE",
"0 800 LINE",
"0 0 LINE"
);
}
);
width = 159;
}
);
},
{
color = 4;
glyphname = _straightstem;
lastChange = "2021-08-30 17:55:15 +0000";
layers = (
{
layerId = "E8C3E522-08D8-4F53-83D1-52B480F39AFA";
paths = (
{
closed = 1;
nodes = (
"159 0 LINE",
"159 800 LINE",
"0 800 LINE",
"0 0 LINE"
);
}
);
width = 159;
}
);
},
{
color = 4;
export = 0;
glyphname = _Arch;
lastChange = "2021-08-30 17:55:15 +0000";
layers = (
{
layerId = "E8C3E522-08D8-4F53-83D1-52B480F39AFA";
paths = (
{
closed = 1;
nodes = (
"343 124 LINE",
"247 124 LINE",
"159 226 LINE",
"159 525 LINE",
"247 628 LINE",
"343 628 LINE",
"343 761 LINE",
"198 761 LINE SMOOTH",
"78 761 OFFCURVE",
"0 654 OFFCURVE",
"0 482 CURVE SMOOTH",
"0 269 LINE SMOOTH",
"0 97 OFFCURVE",
"78 -10 OFFCURVE",
"198 -10 CURVE SMOOTH",
"343 -10 LINE"
);
}
);
width = 343;
}
);
},
{
color = 4;
export = 0;
glyphname = _arch;
lastChange = "2021-08-30 17:55:15 +0000";
layers = (
{
layerId = "E8C3E522-08D8-4F53-83D1-52B480F39AFA";
paths = (
{
closed = 1;
nodes = (
"145 -10 LINE SMOOTH",
"265 -10 OFFCURVE",
"343 62 OFFCURVE",
"343 178 CURVE SMOOTH",
"343 322 LINE SMOOTH",
"343 438 OFFCURVE",
"265 510 OFFCURVE",
"145 510 CURVE SMOOTH",
"0 510 LINE",
"0 420 LINE",
"96 420 LINE",
"184 324 LINE",
"184 176 LINE",
"96 80 LINE",
"0 80 LINE",
"0 -10 LINE"
);
}
);
width = 343;
}
);
},
{
color = 4;
export = 0;
glyphname = _bar;
lastChange = "2021-08-30 17:55:15 +0000";
layers = (
{
layerId = "E8C3E522-08D8-4F53-83D1-52B480F39AFA";
paths = (
{
closed = 1;
nodes = (
"420 400 LINE",
"420 463 LINE",
"342 500 LINE",
"76 500 LINE",
"0 464 LINE",
"0 400 LINE"
);
}
);
width = 420;
}
);
},
{
color = 4;
export = 0;
glyphname = _corner;
lastChange = "2021-08-30 17:55:15 +0000";
layers = (
{
layerId = "E8C3E522-08D8-4F53-83D1-52B480F39AFA";
paths = (
{
closed = 1;
nodes = (
"0 130 LINE",
"28 56 OFFCURVE",
"113 0 OFFCURVE",
"176 0 CURVE",
"265 122 LINE",
"164 136 LINE",
"102 214 LINE"
);
}
);
width = 265;
}
);
},
{
color = 4;
export = 0;
glyphname = _diagonal;
lastChange = "2021-08-30 17:55:15 +0000";
layers = (
{
layerId = "E8C3E522-08D8-4F53-83D1-52B480F39AFA";
paths = (
{
closed = 1;
nodes = (
"334 0 LINE",
"365 87 LINE",
"131 500 LINE",
"50 500 LINE",
"5 354 LINE",
"279 0 LINE"
);
}
);
width = 365;
}
);
},
{
color = 4;
export = 0;
glyphname = _halfbar;
lastChange = "2021-08-30 17:55:15 +0000";
layers = (
{
layerId = "E8C3E522-08D8-4F53-83D1-52B480F39AFA";
paths = (
{
closed = 1;
nodes = (
"260 400 LINE",
"260 463 LINE",
"182 500 LINE",
"0 500 LINE",
"0 400 LINE"
);
}
);
width = 260;
}
);
},
{
color = 4;
export = 0;
glyphname = _shoulder;
lastChange = "2021-08-30 17:55:15 +0000";
layers = (
{
layerId = "E8C3E522-08D8-4F53-83D1-52B480F39AFA";
paths = (
{
closed = 1;
nodes = (
"523 244 LINE",
"523 304 LINE SMOOTH",
"523 429 OFFCURVE",
"462 508 OFFCURVE",
"308 508 CURVE SMOOTH",
"200 508 OFFCURVE",
"120 455 OFFCURVE",
"76 378 CURVE",
"140 339 LINE",
"205 404 LINE",
"271 404 LINE",
"364 308 LINE",
"364 244 LINE"
);
}
);
width = 600;
}
);
},
{
color = 4;
export = 0;
glyphname = _straightbar;
lastChange = "2021-08-30 17:55:15 +0000";
layers = (
{
layerId = "E8C3E522-08D8-4F53-83D1-52B480F39AFA";
paths = (
{
closed = 1;
nodes = (
"420 400 LINE",
"420 500 LINE",
"0 500 LINE",
"0 400 LINE"
);
}
